<?xml version="1.0" encoding="UTF-8" standalone="no"?><!DOCTYPE svg PUBLIC "-//W3C//DTD SVG 1.1//EN" "http://www.w3.org/Graphics/SVG/1.1/DTD/svg11.dtd"><svg width="100%" height="100%" viewBox="0 0 518 120" version="1.1" xmlns="http://www.w3.org/2000/svg" xmlns:xlink="http://www.w3.org/1999/xlink" xml:space="preserve" xmlns:serif="http://www.serif.com/" style="fill-rule:evenodd;clip-rule:evenodd;stroke-linejoin:round;stroke-miterlimit:2;"><g transform="matrix(103.603,0,0,103.603,503.886,99.5765)"></g><text x="141.689px" y="99.577px" style="font-family:'Bespoke-Stencil-Variable-Extrabold-Italic', 'Bespoke Stencil Variable';font-weight:800;font-style:italic;font-size:103.603px;fill:#1b2229;">Meetik</text><g><g><path d="M120.589,43.189c0.579,8.974 1.158,17.949 1.737,26.924c0.112,1.736 -0.911,2.846 -1.09,3.04c-0.182,0.196 -1.21,1.312 -3.032,1.412c-4.625,0.255 -9.251,0.51 -13.877,0.766c1.7,4.2 3.399,8.399 5.099,12.599c0.679,1.67 0.017,3.121 -0.098,3.374c-0.116,0.255 -0.78,1.712 -2.572,2.463c-9.35,3.92 -19.5,8.238 -29.557,12.586c-2.646,1.143 -5.59,0.114 -6.546,-2.278c-1.836,-4.618 -3.672,-9.236 -5.508,-13.854c-6.525,5.061 -12.064,9.424 -13.11,10.248c-2.401,1.891 -5.876,1.764 -7.7,-0.296c-7.206,-8.138 -14.805,-16.888 -22.224,-25.606c-1.89,-2.221 -1.339,-5.541 1.221,-7.314c1.118,-0.774 7.041,-4.875 14.022,-9.617c-7.19,-4.572 -13.204,-8.488 -14.348,-9.233c-2.56,-1.667 -3.123,-4.892 -1.319,-7.111c7.158,-8.807 14.257,-17.408 20.675,-25.08c0.196,-0.234 1.269,-1.517 3.447,-1.664c0.336,-0.023 2.16,-0.146 3.953,1.141c4.168,2.995 9.004,6.434 13.204,9.39c1.44,-4.364 2.881,-8.728 4.321,-13.092c0.083,-0.252 0.574,-1.737 2.386,-2.421c0.288,-0.109 1.798,-0.68 3.759,0.08c9.33,3.612 19.35,7.427 29.362,11.17c2.354,0.88 3.735,3.307 3.115,5.418c-1.206,4.108 -2.412,8.216 -3.618,12.324c4.597,0.151 9.195,0.302 13.793,0.454c2.342,0.078 4.361,1.948 4.505,4.177Z" style="fill:#1b2229;"/></g><g><path d="M116.382,42.137c0.579,8.975 1.158,17.949 1.737,26.924c0.111,1.736 -0.912,2.846 -1.091,3.04c-0.181,0.196 -1.209,1.312 -3.031,1.412c-4.626,0.255 -9.251,0.511 -13.877,0.766c1.7,4.2 3.399,8.4 5.099,12.599c0.679,1.67 0.017,3.121 -0.098,3.374c-0.116,0.255 -0.781,1.712 -2.572,2.463c-9.351,3.92 -19.5,8.238 -29.558,12.586c-2.645,1.144 -5.589,0.115 -6.545,-2.277c-1.836,-4.619 -3.673,-9.237 -5.509,-13.855c-6.524,5.061 -12.063,9.424 -13.109,10.248c-2.401,1.891 -5.876,1.764 -7.7,-0.296c-7.206,-8.138 -14.806,-16.888 -22.224,-25.606c-1.89,-2.221 -1.34,-5.54 1.221,-7.313c1.118,-0.775 7.041,-4.876 14.022,-9.618c-7.19,-4.572 -13.205,-8.488 -14.348,-9.232c-2.561,-1.668 -3.123,-4.892 -1.319,-7.112c7.157,-8.807 14.257,-17.408 20.675,-25.08c0.196,-0.234 1.269,-1.517 3.447,-1.664c0.336,-0.023 2.16,-0.146 3.953,1.142c4.168,2.994 9.004,6.433 13.204,9.39c1.44,-4.365 2.88,-8.729 4.321,-13.093c0.083,-0.252 0.574,-1.737 2.386,-2.421c0.288,-0.109 1.798,-0.68 3.759,0.08c9.329,3.612 19.35,7.427 29.362,11.17c2.354,0.88 3.735,3.307 3.115,5.418c-1.206,4.108 -2.413,8.216 -3.619,12.324c4.598,0.151 9.196,0.303 13.793,0.454c2.343,0.078 4.362,1.948 4.506,4.177Z" style="fill:#ec6242;"/></g><g><path d="M90.002,53.472l-8.832,0.281l-8.87,18.732l-2.531,-12.308l11.691,-22.48l9.541,0.431l-0.999,15.344Zm-27.469,-16.629l7.704,37.809l-9.726,1.22l-3.498,-21.349l-10.024,0.319l5.194,-18.467l10.35,0.468Zm16.59,36.695l1.562,-17.832l9.226,-0.379l-1.099,16.995l-9.689,1.216Zm-38.63,4.844l5.844,-21.264l10.563,-0.435l-4.372,20.19l-12.035,1.509Z" style="fill:#f7fee7;fill-rule:nonzero;"/></g></g></svg>